{"title":"Neon Genesis Evangelion Platinum Perfect Collection [DVD 480p] [","uid":11118229,"size":13628189394,"categoryP":"video","categoryS":"tv_shows","magnet":"?xt=urn:btih:24540c53dbf02d07f03feed8679a53e639d41149&amp;dn=Neon+Genesis+Evangelion+Platinum+Perfect+Collection+%5BDVD+480p%5D+%5B&amp;tr=udp%3A%2F%2Ftracker.openbittorrent.com%3A80&amp;tr=udp%3A%2F%2Fopen.demonii.com%3A1337&amp;tr=udp%3A%2F%2Ftracker.coppersurfer.tk%3A6969&amp;tr=udp%3A%2F%2Fexodus.desync.com%3A6969","seeders":74,"leechers":48,"uploader":"darkj6","files":33,"time":1411876758,"description":" ______   _______  ______    ___   _      ___  --------|\n|      | |   _   ||    _ |  |   | | |    |   ||   |----|    \n|  _    ||  |_|  ||   | ||  |   |_| |    |   ||   |___ \n| | |   ||       ||   |_||_ |      _|    |   ||    _  |\n| |_|   ||       ||    __  ||     |_  ___|   ||   | | |\n|       ||   _   ||   |  | ||    _  ||       ||   |_| |\n|______| |__| |__||___|  |_||___| |_||_______||_______|\n                                                      &lt;a href=&quot;\nhttps://thepiratebay.se/user/darkj6/&quot; rel=&quot;nofollow&quot; target=&quot;_NEW&quot;&gt;\nhttps://thepiratebay.se/user/darkj6/&lt;/a&gt;\n\nJoin ThePirateBay Forum:\n                                                                               &lt;a href=&quot;\nhttps://forum.suprbay.org/member.php?action=register&amp;referrer=908&quot; rel=&quot;nofollow&quot; target=&quot;_NEW&quot;&gt;\nhttps://forum.suprbay.org/member.php?action=register&amp;referrer=908&lt;/a&gt;\n\n\n\n[Zero] Neon Genesis Evangelion Platinum Perfect Collection [DVD 480p] [Dual-Audio] [AC3] [Hi10]\n\n\nNeon Genesis Evangelion Platinum Perfect Collection\n &lt;a href=&quot;\nhttp://postimg.org/image/y7udwmahl/&quot; rel=&quot;nofollow&quot; target=&quot;_NEW&quot;&gt;\nhttp://postimg.org/image/y7udwmahl/&lt;/a&gt;\n\nVideo\n\nSource: U.S. DVD\nContainer: MKV \nResolution: 640x480\nBitrate: CRF 18\nSubme=11\n10-bit:\n\nAudio \n\nTrack 01 English 5.1 (Default) [AC3] (448kbps)\nTrack 02 Japanese 5.1 [AC3] (448kbps)\nTrack 03 English Commentary 2.0 [AC3] (192kbps)\n\nSubtitles\n\nTrack 01 Signs/Lyrics (Default) [VOB]\nTrack 02 English [VOB]\n\n\nVideo\nID : 1\nFormat : AVC\nFormat/Info : Advanced Video Codec\nFormat profile : High &lt;a class=&quot;__cf_email__&quot; href=&quot;/cdn-cgi/l/email-protection&quot; data-cfemail=&quot;635253232f504d52&quot;&gt;[email&amp;#160;protected]&lt;/a&gt;&lt;script data-cfhash='f9e31' type=&quot;text/javascript&quot;&gt;\n/* &lt;![CDATA[ */!function(){try{var t=&quot;currentScript&quot;in document?document.currentScript:function(){for(var t=document.getElementsByTagName(&quot;script&quot;),e=t.length;e--;)if(t[e].getAttribute(&quot;data-cfhash&quot;))return t[e]}();if(t&amp;&amp;t.previousSibling){var e,r,n,i,c=t.previousSibling,a=c.getAttribute(&quot;data-cfemail&quot;);if(a){for(e=&quot;&quot;,r=parseInt(a.substr(0,2),16),n=2;a.length-n;n+=2)i=parseInt(a.substr(n,2),16)^r,e+=String.fromCharCode(i);e=document.createTextNode(e),c.parentNode.replaceChild(e,c)}t.parentNode.removeChild(t);}}catch(u){}}()/* ]]&gt; */&lt;/script&gt;\nFormat settings, CABAC : Yes\nFormat settings, ReFrames : 8 frames\nCodec ID : V_MPEG4/ISO/AVC\nDuration : 23mn 21s\nBit rate : 1 925 Kbps\nWidth : 640 pixels\nHeight : 480 pixels\nDisplay aspect ratio : 4:3\nFrame rate mode : Constant\nFrame rate : 23.976 fps\nColor space : YUV\nChroma subsampling : 4:2:0\nBit depth : 10 bits\nScan type : Progressive\nBits/(Pixel*Frame) : 0.261\nStream size : 322 MiB (63%)\nTitle : Neon Genesis Evangelion Episode 01 Angel Attack\nWriting library : x264 core 138 r2358 9e941d1\nEncoding settings : cabac=1 / ref=8 / deblock=1:0:0 / analyse=0x3:0x133 / me=umh / subme=11 / psy=1 / psy_rd=1.00:0.00 / mixed_ref=1 / me_range=24 / chroma_me=1 / trellis=2 / 8x8dct=1 / cqm=0 / deadzone=21,11 / fast_pskip=0 / chroma_qp_offset=-2 / threads=6 / lookahead_threads=1 / sliced_threads=0 / nr=0 / decimate=1 / interlaced=0 / bluray_compat=0 / constrained_intra=0 / bframes=5 / b_pyramid=2 / b_adapt=2 / b_bias=0 / direct=3 / weightb=1 / open_gop=0 / weightp=2 / keyint=240 / keyint_min=23 / scenecut=40 / intra_refresh=0 / rc_lookahead=60 / rc=crf / mbtree=1 / crf=18.0 / qcomp=0.60 / qpmin=0 / qpmax=81 / qpstep=4 / vbv_maxrate=17500 / vbv_bufsize=17500 / crf_max=0.0 / nal_hrd=none / ip_ratio=1.40 / aq=1:1.00\nLanguage : English\nDefault : Yes\nForced : No\n\nAudio #1\nID : 2\nFormat : AC-3\nFormat/Info : Audio Coding 3\nMode extension : CM (complete main)\nFormat settings, Endianness : Big\nCodec ID : A_AC3\nDuration : 23mn 21s\nBit rate mode : Constant\nBit rate : 448 Kbps\nChannel(s) : 6 channels\nChannel positions : Front: L C R, Side: L R, LFE\nSampling rate : 48.0 KHz\nBit depth : 16 bits\nCompression mode : Lossy\nStream size : 74.8 MiB (15%)\nTitle : English\nLanguage : English\nDefault : Yes\nForced : No\n\nAudio #2\nID : 3\nFormat : AC-3\nFormat/Info : Audio Coding 3\nMode extension : CM (complete main)\nFormat settings, Endianness : Big\nCodec ID : A_AC3\nDuration : 23mn 21s\nBit rate mode : Constant\nBit rate : 448 Kbps\nChannel(s) : 6 channels\nChannel positions : Front: L C R, Side: L R, LFE\nSampling rate : 48.0 KHz\nBit depth : 16 bits\nCompression mode : Lossy\nStream size : 74.8 MiB (15%)\nTitle : Japanese\nLanguage : Japanese\nDefault : No\nForced : No\n\nAudio #3\nID : 4\nFormat : AC-3\nFormat/Info : Audio Coding 3\nMode extension : CM (complete main)\nFormat settings, Endianness : Big\nCodec ID : A_AC3\nDuration : 23mn 21s\nBit rate mode : Constant\nBit rate : 192 Kbps\nChannel(s) : 2 channels\nChannel positions : Front: L R\nSampling rate : 48.0 KHz\nBit depth : 16 bits\nCompression mode : Lossy\nStream size : 32.1 MiB (6%)\nTitle : English Commentary\nLanguage : English\nDefault : No\nForced : No\n\nText #1\nID : 5\nFormat : VobSub\nMuxing mode : zlib\nCodec ID : S_VOBSUB\nCodec ID/Info : The same subtitle format used on DVDs\nTitle : Signs/Lyrics\nLanguage : English\nDefault : Yes\nForced : No\n\nText #2\nID : 6\nFormat : VobSub\nMuxing mode : zlib\nCodec ID : S_VOBSUB\nCodec ID/Info : The same subtitle format used on DVDs\nTitle : English\nLanguage : English\nDefault : No\nForced : No\n\nMenu\n00:00:00.066 : en:Chapter 01 Opening Theme\n\n","torrent":{"xt":"urn:btih:24540c53dbf02d07f03feed8679a53e639d41149","amp;dn":"Neon+Genesis+Evangelion+Platinum+Perfect+Collection+%5BDVD+480p%5D+%5B","amp;tr":["udp%3A%2F%2Ftracker.openbittorrent.com%3A80","udp%3A%2F%2Fopen.demonii.com%3A1337","udp%3A%2F%2Ftracker.coppersurfer.tk%3A6969","udp%3A%2F%2Fexodus.desync.com%3A6969"],"infoHash":"24540c53dbf02d07f03feed8679a53e639d41149","infoHashBuffer":{"type":"Buffer","data":[36,84,12,83,219,240,45,7,240,63,238,216,103,154,83,230,57,212,17,73]},"announce":[],"urlList":[]}}